<!DOCTYPE svg PUBLIC "-//W3C//DTD SVG 1.1//EN" "http://www.w3.org/Graphics/SVG/1.1/DTD/svg11.dtd">
<!-- Uploaded to: SVG Repo, www.svgrepo.com, Transformed by: SVG Repo Mixer Tools -->
<svg width="800px" height="800px" viewBox="0 0 1024 1024" xmlns="http://www.w3.org/2000/svg" fill="#000000" stroke="#000000">
<g id="SVGRepo_bgCarrier" stroke-width="0"/>
<g id="SVGRepo_tracerCarrier" stroke-linecap="round" stroke-linejoin="round"/>
<g id="SVGRepo_iconCarrier"> <circle cx="512" cy="512" r="512" style="fill:#1c274c"/> <path d="M690.7 307.8H333.3c-42.3 0-76.6 34.3-76.6 76.6v255.3c0 42.3 34.3 76.6 76.6 76.6h357.4c42.3 0 76.6-34.3 76.6-76.6V384.3c0-42.3-34.3-76.5-76.6-76.5zm-10.4 51L530.1 508.9c-9.9 10-26.1 10.1-36.1.1l-.1-.1-150.2-150.1h336.6zm36 280.9c0 14.1-11.4 25.5-25.5 25.5H333.3c-14.1 0-25.5-11.4-25.5-25.5V394.8l150.1 150.1c29.9 29.9 78.3 29.9 108.3 0l150.1-150.1v244.9z" style="fill:#fff"/> </g>
</svg>