<?xml version="1.0" encoding="utf-8"?>
<svg width="800px" height="800px" viewBox="0 0 24 24" fill="none" xmlns="http://www.w3.org/2000/svg" style="">
  <g id="SVGRepo_bgCarrier" stroke-width="0" style=""/>
  <g id="SVGRepo_tracerCarrier" stroke-linecap="round" stroke-linejoin="round" transform="matrix(0.908071, -0.000014, 0.003535, 0.911361, -10.038981, -6.511346)" style="transform-origin: 110.039px 106.511px;">
    <ellipse style="stroke: rgb(0, 0, 0); fill: color(srgb-linear 0.012 0.02 0.072); stroke-dashoffset: -14px; paint-order: fill; stroke-opacity: 0; transform-box: fill-box; transform-origin: 50% 50%;" cx="12.641" cy="12.009" rx="13.14" ry="13.071" transform="matrix(0.999984, -0.005724, 0.005724, 0.999984, 0.889928, -2.092946)"/>
  </g>
  <g id="SVGRepo_iconCarrier" transform="matrix(0.720459, 0, 0, 0.828156, 4.896999, 0.124031)" style="">
    <path fill-rule="evenodd" clip-rule="evenodd" d="M 4.906 11.38 C 5.308 11.38 5.633 11.049 5.633 10.64 L 5.633 9.843 C 5.633 9.504 5.649 9.422 5.693 9.337 C 5.718 9.287 5.758 9.247 5.807 9.221 C 5.889 9.177 5.97 9.16 6.304 9.16 L 13.683 9.16 C 14.016 9.16 14.097 9.177 14.18 9.221 C 14.231 9.249 14.267 9.285 14.294 9.337 C 14.338 9.421 14.354 9.504 14.354 9.843 L 14.354 18.837 C 14.354 19.177 14.338 19.259 14.294 19.343 C 14.269 19.393 14.229 19.434 14.18 19.459 C 14.098 19.504 14.016 19.52 13.683 19.52 L 6.304 19.52 C 5.97 19.52 5.89 19.504 5.807 19.459 C 5.758 19.434 5.718 19.393 5.693 19.343 C 5.649 19.26 5.633 19.177 5.633 18.837 L 5.633 18.04 C 5.633 17.47 5.027 17.114 4.543 17.399 C 4.318 17.531 4.18 17.776 4.18 18.04 L 4.18 18.837 C 4.18 19.399 4.239 19.714 4.411 20.041 C 4.573 20.351 4.817 20.598 5.121 20.764 C 5.443 20.939 5.751 21 6.304 21 L 13.683 21 C 14.235 21 14.544 20.939 14.865 20.764 C 15.17 20.598 15.413 20.351 15.575 20.041 C 15.748 19.714 15.807 19.4 15.807 18.837 L 15.807 9.843 C 15.807 9.281 15.748 8.967 15.575 8.639 C 15.415 8.332 15.167 8.08 14.865 7.916 C 14.544 7.741 14.236 7.68 13.683 7.68 L 6.304 7.68 C 5.752 7.68 5.443 7.741 5.121 7.916 C 4.819 8.08 4.572 8.332 4.411 8.639 C 4.24 8.967 4.18 9.28 4.18 9.843 L 4.18 10.64 C 4.18 11.049 4.505 11.38 4.906 11.38 Z M 11.878 13.558 C 12.302 13.991 12.302 14.69 11.878 15.124 L 9.783 17.263 C 9.499 17.552 9.034 17.552 8.751 17.263 C 8.467 16.975 8.467 16.508 8.751 16.22 C 9.122 15.842 9.533 15.508 9.978 15.224 L 10.259 15.045 L 10.109 14.893 C 9.575 15.018 9.029 15.081 8.481 15.081 L 2.725 15.081 C 2.165 15.081 1.816 14.464 2.095 13.971 C 2.225 13.742 2.465 13.601 2.725 13.601 L 8.481 13.601 C 9.029 13.601 9.575 13.664 10.109 13.789 L 10.259 13.636 L 9.979 13.458 C 9.534 13.174 9.122 12.839 8.751 12.461 C 8.467 12.173 8.467 11.705 8.751 11.417 C 9.034 11.129 9.499 11.129 9.783 11.417 L 11.878 13.558 L 11.878 13.558 Z" style="fill: rgb(255, 255, 255);"/>
  </g>
</svg>