<?xml version="1.0" encoding="utf-8"?>
<svg xmlns="http://www.w3.org/2000/svg" viewBox="0 0 500 500">
  <g id="SVGRepo_tracerCarrier" stroke-linecap="round" stroke-linejoin="round" transform="matrix(18.879539, -0.001602, 0.075328, 19.078806, -17.114052, 3.581464)" style="transform-origin: -0.589829px -3.16809px;">
    <ellipse style="stroke: rgb(0, 0, 0); fill: color(srgb-linear 0.012 0.02 0.072); stroke-dashoffset: -14px; paint-order: fill; stroke-opacity: 0; transform-box: fill-box; transform-origin: 50% 50%;" cx="12.641" cy="12.009" rx="13.14" ry="13.071" transform="matrix(0.999984, -0.005724, 0.005724, 0.999984, 0.889928, -2.092946)"/>
  </g>
  <path fill-rule="evenodd" clip-rule="evenodd" d="M 399.741 235.046 C 407.554 243.125 407.554 256.176 399.741 264.27 L 361.17 304.198 C 355.951 309.585 347.389 309.585 342.171 304.198 C 336.952 298.826 336.952 290.098 342.171 284.725 C 349.007 277.666 356.58 271.439 364.768 266.149 L 369.945 262.806 L 367.176 259.96 C 357.355 262.295 347.295 263.47 337.206 263.47 L 231.23 263.47 C 220.93 263.47 214.493 251.95 219.645 242.75 C 222.039 238.47 226.455 235.846 231.23 235.846 L 337.206 235.846 C 347.295 235.846 357.355 237.019 367.176 239.354 L 369.945 236.51 L 364.782 233.179 C 356.594 227.877 349.007 221.621 342.171 214.561 C 336.952 209.19 336.952 200.461 342.171 195.089 C 347.389 189.703 355.951 189.703 361.17 195.089 L 399.741 235.046 Z M 298.153 304.889 C 290.767 304.889 284.773 311.062 284.773 318.7 L 284.773 339.417 C 284.773 343.229 281.778 346.322 278.084 346.322 L 184.431 346.322 C 180.737 346.322 177.74 343.229 177.74 339.417 L 177.74 159.871 C 177.74 156.058 180.737 152.963 184.431 152.963 L 278.084 152.963 C 281.778 152.963 284.773 156.058 284.773 159.871 L 284.773 180.655 C 284.773 191.277 295.932 197.934 304.842 192.616 C 308.992 190.143 311.532 185.587 311.532 180.655 L 311.532 159.871 C 311.532 140.795 296.559 125.341 278.084 125.341 L 184.431 125.341 C 165.966 125.341 150.983 140.795 150.983 159.871 L 150.983 339.417 C 150.983 358.477 165.966 373.946 184.431 373.946 L 278.084 373.946 C 296.559 373.946 311.532 358.477 311.532 339.417 L 311.532 318.7 C 311.532 311.062 305.552 304.889 298.153 304.889 Z" style="stroke-width: 1; fill: rgb(255, 255, 255);"/>
</svg>